#!OML:ASF F:\VICON\USERDATA\INSTALL\rory3\rory3.ASF
:FULLY-SPECIFIED
:DEGREES
126
root -0.10636768878313169 17.158564125149965 36.20034641976366 0.470552517861174 5.215752318679302 1.5375730733012167
lfemur -25.918769607930336 -2.1362470089291863 -26.306035571874173
ltibia 42.592504788475225
lfoot -22.137191619768636 2.402100893293789
ltoes -13.040190230544626
rfemur -19.710180963043786 -7.300471793955314 18.30157178333838
rtibia 108.00691287602889
rfoot 1.169709913619653 -16.82498174607249
rtoes 14.108120556039996
lowerback nan -0.3777021577831393 -4.452234584697912
upperback 0.500484387384847 1.0901939025955674 -1.540759225356344
thorax -10.579715816656485 0.44326256869273023 1.391833338287827
lowerneck -23.032762617846124 -4.181291855913934 -1.249320272437521
upperneck 10.533042755997151 -6.654172186559272 4.770595046197269
head 7.797613881037793 -2.5453519339566215 0.7182469117101994
lclavicle 3.620233267557083e-17 -4.4568660827946705e-14
lhumerus -46.942586905959914 -6.892332705506176 93.9551766461847
lradius 125.22213940480718
lwrist 35.96452948021307
lhand -24.773600077301747 0.1767417300340297
lfingers nan
lthumb 1.4678041963216493 29.850448175366076
rclavicle 4.412317890033555e-15 -4.102516819592116e-14
rhumerus -50.61238415054064 11.611017282339892 -103.45982842202127
rradius 105.20012669685865
rwrist -2.6754148410201646
rhand -21.192898459802116 nan
rfingers nan
rthumb 6.055153863659587 11.06856749046307
127
root -0.13513300740362189 17.108612606702046 36.49125861222783 0.7367060307465936 4.07435162624335 1.4629442159471369
lfemur -24.32454161389924 -1.90045491563256 -26.44725982148276
ltibia 42.96915476801128
lfoot -23.47316315882155 3.462334849760878
ltoes -12.394211101911536
rfemur -22.920602354702467 -7.0141573761987255 17.7201045153487
rtibia 110.9619107435293
rfoot 0.7606492980921802 -15.473938969789462
rtoes 14.133702661350679
lowerback nan 0.10047832008328217 -4.784697982670039
upperback 0.4084319021424434 1.423199239583536 -1.4357518365584896
thorax -10.664037320788967 0.6246950952963171 1.730077873092466
lowerneck -22.686634728276715 -4.071140086177821 -0.9258471901731662
upperneck 9.98780244428574 -6.574863672428512 4.6739613443756625
head 7.604048475471683 -2.527444160152531 0.6376493797517717
lclavicle -6.912686079761028e-14 -1.0583938729816938e-15
lhumerus -44.803862386220224 -7.754808714946281 93.81371218893167
lradius 124.86890048489282
lwrist 35.79510121888641
lhand -23.49844780570841 -1.7157949844568214
lfingers nan
lthumb 2.6534784569433896 27.920562119391573
rclavicle -6.513975550720865e-14 2.1614318664761265e-15
rhumerus -51.48419048954221 10.568433527984544 -103.35358394740466
rradius 104.62617065230204
rwrist -1.2799192648238495
rhand -21.142227129819105 nan
rfingers nan
rthumb 6.14253544783637 11.021779648951162
128
root -0.1464089706498934 17.06312646176365 36.73813892399525 0.9649581453665546 3.563967218582123 1.2796058531803163
lfemur -22.603419134325666 -1.5876064197939046 -26.483773448084357
ltibia 43.10824294063157
lfoot -24.663914751771564 4.895772780941669
ltoes -15.21390376197725
rfemur -26.153309787116196 -7.057547458191364 17.55463050984607
rtibia 113.30555393432788
rfoot 0.23288147527888725 -14.082566647122068
rtoes 13.014229017333271
lowerback nan 0.3211439550331866 -4.764490542830249
upperback 0.32026755341470015 1.5363609076538003 -1.2694481974266874
thorax -10.657428489983781 0.6949890449494707 1.9770472183997014
lowerneck -22.425380228999177 -4.016785696813342 -0.899126630777161
upperneck 9.622766857909756 -6.532676952512049 4.693745163601303
head 7.465213316310495 -2.508863486742695 0.6256228933164008
lclavicle 2.536700417758455e-15 1.7477933557602172e-16
lhumerus -42.7550532797377 -8.634872235678557 93.89402016150268
lradius 124.89220946722187
lwrist 35.81136650285973
lhand -23.28839105977703 -2.4379352972163417
lfingers nan
lthumb 2.8364528290876896 27.176517710753743
rclavicle 6.0558722030196064e-15 2.828006158537483e-15
rhumerus -52.46021240341282 9.63125617212378 -103.02822124953711
rradius 104.29847558995047
rwrist 0.29913215072294186
rhand -21.239387288124977 nan
rfingers nan
rthumb 6.079087603658799 11.050839918121579
129
root -0.13743253792578192 17.02719490410552 37.12038267127863 1.171761253705359 3.9964494804049284 0.9882601350698592
lfemur -20.804037315504587 -1.8014575288661445 -26.29074320032699
ltibia 42.98041496103432
lfoot -25.661426777945987 5.8463271193970305
ltoes -16.776891976503812
rfemur -29.223091908686783 -7.78307672952249 17.785810757957606
rtibia 114.98222990018695
rfoot -0.5662381753231793 -12.60984635040629
rtoes 12.40414462714574
lowerback nan 0.12927534269667174 -4.1932978779068915
upperback 0.30560211925218517 1.251662894309953 -1.0585441922463092
thorax -10.517486128820066 0.5524660191673206 2.0533419276655804
lowerneck -22.559241478541228 -3.8797337666793337 -1.0588898675354048
upperneck 9.619393431518656 -6.382630224957824 4.825508367492445
head 7.460052596200066 -2.3902262667060166 0.6942750650371265
lclavicle 6.444518833583063e-14 -4.5757357550178734e-14
lhumerus -40.645894303191234 -9.472086775412192 93.92559744993449
lradius 124.7675971401422
lwrist 35.804830253300764
lhand -22.545918511344418 -2.918307299182189
lfingers nan
lthumb 3.532827753687333 26.69717783256269
rclavicle 6.688629155980731e-14 -4.1942849155914686e-14
rhumerus -53.37496318129649 8.971810331638808 -102.6202807518022
rradius 104.09229246906565
rwrist 0.7680225162941152
rhand -21.470464724739735 nan
rfingers nan
rthumb 5.888221675013811 11.769791178321618
130
root -0.12782035028341698 17.01912064941031 37.8076137467891 1.3103599564959247 4.040560613719496 0.8582966933548168
lfemur -18.680788220156117 -1.6713703567109186 -26.22493488626951
ltibia 42.49019739143999
lfoot -26.361586634280147 6.009084300420887
ltoes -15.661558393880014
rfemur -32.12666243899444 -8.198271592236736 17.99837990022526
rtibia 116.05152089825279
rfoot -1.1844708324127975 -10.545479303012934
rtoes 11.210368927218656
lowerback nan 0.021346362784934847 -3.981853817590682
upperback 0.39239657712912357 1.0266945797217442 -0.8521114151206792
thorax -10.353051684860723 0.4564719937333997 2.265831564868115
lowerneck -22.8421559939871 -3.7083233706786713 -1.085379852231147
upperneck 9.642976476380088 -6.167418675179329 4.856474024601807
head 7.46124072823771 -2.265788607973022 0.7152009767725942
lclavicle 2.9694746354503944e-14 -2.886766097232838e-14
lhumerus -38.58544120384491 -9.944326362910225 93.75130167848721
lradius 124.77650169351176
lwrist 35.01445698437146
lhand -23.086722973081432 -1.6198805007561716
lfingers nan
lthumb 3.039214074300472 28.027200303788078
rclavicle 3.1919574725733554e-14 -2.692405745739088e-14
rhumerus -54.21406457714324 8.616483478153855 -102.298772403946
rradius 104.35053711132194
rwrist 0.27246612635652667
rhand -21.668271496434194 nan
rfingers nan
rthumb 5.702921945865802 11.246026823414441
131
root -0.10825030378132082 17.03231182206019 38.05897340223241 1.5052963546385634 3.706958126037077 0.9681033577208704
lfemur -16.338111044064675 -1.2577833429257494 -26.583037656487303
ltibia 41.655963594243204
lfoot -26.545756769703402 6.971532964882653
ltoes -17.454323699643286
rfemur -34.86830297480556 -8.19820703447768 17.930347212917077
rtibia 116.50275734347241
rfoot -1.4537896552194196 -8.41743119697474
rtoes 4.785294622230418
lowerback nan -0.0018908740366228027 -4.141389147457055
upperback 0.6165074824521932 0.8538001988847795 -0.7159716114535153
thorax -9.66249101653537 0.3813173428658244 2.558159660273379
lowerneck -23.163546631239363 -3.6340809172706283 -1.1537297278216887
upperneck 9.638878690427749 -6.079405291878114 4.880460572455682
head 7.461193544899413 -2.2105304196786384 0.7258327633243233
lclavicle -4.854261286049358e-14 6.8726977163046216e-15
lhumerus -36.81057922775737 -10.07547500855042 93.6318040015095
lradius 124.9158569138938
lwrist 33.66677052489045
lhand -23.59720570740163 -0.6421072101640697
lfingers nan
lthumb 2.568798403065774 29.022667927496425
rclavicle -4.5820565830851984e-14 8.813576059197682e-15
rhumerus -54.924486849861125 8.400220214945325 -102.03819585407669
rradius 104.77841408941691
rwrist -1.55160692028136
rhand -21.363061909314307 nan
rfingers nan
rthumb 6.0042960829690095 11.263409751894569
132
root -0.09334878006672173 17.053132428556236 38.35586801899289 1.7283437126884076 3.3994330695214616 1.3150858035794268
lfemur -13.862433340351238 -0.9342556449811155 -27.29470982465559
ltibia 40.528435500980386
lfoot -26.069426308837734 8.114911185588149
ltoes -20.84437930214139
rfemur -37.762677171433 -8.169653956363362 17.56090228325516
rtibia 116.4914317254823
rfoot -2.237420933002257 -7.471484760920158
rtoes 1.2806385564825202
lowerback nan -0.014954851440922234 -4.663150094901658
upperback 0.7994065081004738 0.6378231915665407 -0.6897213138284795
thorax -8.886085083990428 0.2675268596808177 2.8948933877415115
lowerneck -23.413997850613658 -3.5220745673798985 -1.2427974977567846
upperneck 9.698079177277354 -5.980918080471775 4.967492857381764
head 7.483438866747767 -2.1292859393307757 0.7771410108539449
lclavicle -4.690283403395448e-14 -5.067616755614792e-15
lhumerus -35.5569162492951 -10.060289891244842 93.5737234706896
lradius 125.26606623658279
lwrist 32.47696125929965
lhand -23.64893036739073 -0.8346329221260806
lfingers nan
lthumb 2.513494218950651 28.82299141749664
rclavicle -4.4505576524841485e-14 -3.4454652675007486e-15
rhumerus -55.633737886285004 8.363556104663587 -101.90313010666173
rradius 105.39022520019965
rwrist -4.151456862607812
rhand -21.29030583897135 nan
rfingers nan
rthumb 6.106469244534438 11.511142820448057
